PathFileType  4	(X/Y/Z) C:\Users\antoi\Documents\MyRepositories\mobilecap\ResultsAnalysis
DataRate	CameraRate	NumFrames	NumMarkers	Units	OrigDataRate	OrigDataStartFrame	OrigNumFrames
100.0	100.0	6	51	mm	100.0	43	170
Frame#	Time	r_knee			r_shank_antsup			r_ankle			r_calc			r_5meta			r_toe			L_knee			L_shank_antsup			L_ankle			L_calc			L_5meta			L_toe			r_sh2			r_sh3			r_sh4			L_sh2			L_sh3			r_thigh1			r_thigh2			r_thigh3			r_thigh4			r_thigh5			L_thigh1			L_thigh2			L_thigh3			L_thigh4			r.ASIS			r.PSIS			L.ASIS			L.PSIS			C7			R_Shoulder			L_Shoulder			R_Sternum			L_Sternum			R_humerus			R_elbow_med			R_elbow_lat			R_forearm			R_wrist_radius			R_wrist_ulna			L_humerus			L_elbow_med			L_elbow_lat			L_forearm			L_wrist_radius			L_wrist_ulna			R_HJC			L_HJC			R_HJC_reg			L_HJC_reg			
		X1	Y1	Z1	X2	Y2	Z2	X3	Y3	Z3	X4	Y4	Z4	X5	Y5	Z5	X6	Y6	Z6	X7	Y7	Z7	X8	Y8	Z8	X9	Y9	Z9	X10	Y10	Z10	X11	Y11	Z11	X12	Y12	Z12	X13	Y13	Z13	X14	Y14	Z14	X15	Y15	Z15	X16	Y16	Z16	X17	Y17	Z17	X18	Y18	Z18	X19	Y19	Z19	X20	Y20	Z20	X21	Y21	Z21	X22	Y22	Z22	X23	Y23	Z23	X24	Y24	Z24	X25	Y25	Z25	X26	Y26	Z26	X27	Y27	Z27	X28	Y28	Z28	X29	Y29	Z29	X30	Y30	Z30	X31	Y31	Z31	X32	Y32	Z32	X33	Y33	Z33	X34	Y34	Z34	X35	Y35	Z35	X36	Y36	Z36	X37	Y37	Z37	X38	Y38	Z38	X39	Y39	Z39	X40	Y40	Z40	X41	Y41	Z41	X42	Y42	Z42	X43	Y43	Z43	X44	Y44	Z44	X45	Y45	Z45	X46	Y46	Z46	X47	Y47	Z47	X48	Y48	Z48	X49	Y49	Z49	X50	Y50	Z50	X51	Y51	Z51	

43	0.42000000	221.28655	468.40371	-94.57247	253.24449	354.37518	-120.85824	161.57031	89.78230	-162.42244	117.56353	55.18229	-219.91612	270.71057	38.74460	-123.33306	311.91069	56.11499	-162.74669	422.56179	489.90926	-368.96951	418.63204	376.12755	-332.07396	202.28686	178.17942	-376.27423	142.04910	164.61707	-328.38524	278.61569	76.92025	-403.14453	322.61865	71.82098	-352.80333	237.28745	244.52513	-144.93713	195.70641	347.94626	-69.67889	164.65819	244.08748	-101.98189	387.48785	424.97232	-396.92957	319.15594	327.62617	-418.86732	329.29308	767.26492	-91.54541	330.36229	655.70334	-98.50037	279.22346	629.30087	-56.02268	228.82710	763.90754	-39.85065	229.32943	649.40586	-47.11389	359.75694	773.99208	-397.93984	432.73950	660.30342	-387.96366	265.11281	719.69246	-427.18813	340.94276	602.17370	-408.48121	345.77414	927.97352	-117.29083	163.50040	984.39708	-187.70354	344.32732	924.92067	-359.73312	161.48132	979.35130	-304.41096	243.75964	1413.92059	-129.78044	276.49201	1329.56310	5.11783	321.19345	1423.81814	-286.45220	359.61639	1336.70681	-119.40625	365.67223	1348.56113	-163.02655	271.60320	1191.25888	41.91927	181.69177	1015.96052	-49.61294	197.50535	1008.99885	25.03331	268.54381	901.74007	30.47210	330.60283	817.32410	20.31002	298.12124	800.11173	26.04728	325.22108	1295.13232	-388.73641	220.01896	1112.56539	-388.51509	243.22383	1134.45276	-453.89538	311.66029	1058.32780	-480.46601	377.65229	946.64593	-479.25301	354.33646	934.81419	-498.57800	249.18089	863.45170	-142.02140	254.63411	855.43398	-331.15163	267.54916	868.23619	-147.24771	264.78367	861.32585	-307.10111	
44	0.43000000	225.43660	468.14277	-94.44983	256.29754	353.73113	-120.85170	162.25587	89.93263	-162.83666	117.77318	55.32700	-220.07353	270.76165	38.75930	-123.34344	311.97248	56.02764	-162.78599	435.62782	493.07744	-368.43171	437.08174	379.20656	-332.11027	231.71976	169.18276	-374.91824	172.49031	152.02369	-326.57647	313.82883	73.10418	-402.33509	358.64313	70.82756	-352.25242	239.24241	243.97989	-145.14421	198.67578	347.72076	-69.66292	166.62409	244.20148	-102.05396	402.70703	426.55378	-396.46644	339.54602	325.63651	-418.00045	336.50680	766.23102	-90.72702	336.40256	654.56341	-97.91009	285.18055	628.54955	-55.62943	235.70746	763.53098	-39.10757	235.20554	648.90898	-46.41756	369.20245	776.44631	-397.44388	443.52855	663.70024	-387.21926	275.22239	720.90216	-426.82449	352.55633	604.40781	-408.19569	353.82997	927.65809	-116.00655	171.44932	984.07300	-186.45051	352.44728	925.81688	-358.62188	169.34300	979.36733	-303.15964	251.32225	1414.69282	-130.73491	285.08732	1331.34518	4.40466	327.53126	1423.73175	-288.05926	367.33924	1337.83456	-120.70768	373.10614	1349.42340	-164.43890	281.30362	1193.24717	41.94344	191.56080	1017.00025	-47.71657	208.79229	1010.18843	26.50745	279.43317	902.95960	31.31097	341.12059	818.32837	20.22265	308.52228	801.10959	26.71613	330.88808	1294.51487	-389.68259	226.44897	1111.58504	-387.23687	248.64337	1133.23376	-452.98145	316.69423	1057.08551	-480.30012	382.62053	945.30138	-479.69046	358.98873	933.42714	-498.74817	257.36971	863.05835	-141.20739	262.94094	855.90523	-330.36852	275.74774	868.13605	-146.10357	272.86064	861.68648	-306.08069	
45	0.44000000	229.51021	467.86314	-94.27442	259.17493	353.03766	-120.79697	162.83985	90.13066	-163.19586	117.93038	55.51204	-220.25179	270.82566	38.75823	-123.35420	312.06307	55.92640	-162.81922	448.10480	495.71646	-368.05732	455.02098	382.11834	-332.06510	261.75664	160.27246	-373.49760	203.73612	139.62211	-324.63719	349.30920	69.69880	-401.31366	394.79687	70.39179	-351.44900	241.18404	243.46927	-145.26762	201.54730	347.48394	-69.60565	168.51905	244.30479	-102.09877	417.66752	427.54359	-396.17600	360.09876	323.19944	-417.19405	343.80955	765.16307	-89.87797	342.44926	653.33817	-97.27859	291.24260	627.74652	-55.15303	242.76377	763.11201	-38.42507	241.09012	648.39012	-45.67928	378.54495	778.55814	-396.90507	454.00927	666.61216	-386.50983	285.21876	721.97993	-426.53462	363.77764	606.33914	-407.98250	361.88288	927.22141	-114.68574	179.44235	983.64542	-185.19314	360.66777	926.54245	-357.46118	177.26229	979.23985	-301.90225	258.92650	1415.33890	-131.78799	293.68945	1333.04361	3.63041	333.96714	1423.45779	-289.70680	375.10915	1338.83458	-122.04530	380.56231	1350.12993	-165.88514	291.05461	1195.15698	41.91592	201.49845	1017.96791	-45.89778	220.12797	1011.32981	27.91531	290.31620	904.09408	32.12783	351.54171	819.20400	20.14439	318.85435	801.96088	27.42436	336.62847	1293.71135	-390.64943	232.88403	1110.46953	-386.14215	254.18713	1131.90221	-452.19417	321.77323	1055.63834	-480.22271	387.48275	943.63152	-480.14784	363.54147	931.76773	-499.01455	265.57248	862.55268	-140.35462	271.30904	856.22666	-329.53972	283.96711	867.94466	-144.90962	280.97679	861.90175	-305.00259	
46	0.45000000	233.50004	467.57665	-94.02649	261.79524	352.25813	-120.67707	163.30198	90.37658	-163.46467	118.03222	55.73823	-220.44131	270.89740	38.73808	-123.36047	312.18358	55.80869	-162.84016	460.06273	497.80938	-367.84185	472.45387	384.86756	-331.90130	292.32756	151.61888	-372.07052	235.67973	127.64135	-322.67481	384.97695	66.80046	-400.06233	430.92560	70.57221	-350.34802	243.08891	242.98619	-145.27589	204.29536	347.24381	-69.48827	170.32328	244.40700	-102.10123	432.44150	427.97653	-396.04570	380.86406	320.42413	-416.46610	351.15957	764.04587	-88.98685	348.54965	652.02813	-96.59972	297.34032	626.90908	-54.59494	249.88034	762.66815	-37.71836	246.97841	647.87127	-44.92626	387.77490	780.29356	-396.33306	464.17240	668.98749	-385.85395	295.06569	722.88062	-426.28512	374.59586	607.93334	-407.83828	369.91667	926.64853	-113.35887	187.48226	983.11080	-183.92584	368.94605	927.08649	-356.25824	185.23399	978.96840	-300.63124	266.60802	1415.83250	-132.95140	302.33075	1334.63227	2.79255	340.49399	1422.99257	-291.40226	382.93709	1339.69338	-123.42465	388.05607	1350.66359	-167.37146	300.83859	1196.97117	41.83160	211.48831	1018.86066	-44.16110	231.45089	1012.42947	29.25960	301.16547	905.13114	32.92251	361.83852	819.91688	20.13457	329.11094	802.67746	28.16833	342.46594	1292.71843	-391.64654	239.35514	1109.17745	-385.19631	259.86112	1130.43636	-451.51575	326.89462	1053.96236	-480.22602	392.23509	941.63575	-480.62321	368.00941	929.83661	-499.35479	273.77638	861.92531	-139.47006	279.70347	856.39206	-328.67367	292.18676	867.65792	-143.68897	289.10102	861.97215	-303.87442	
47	0.46000000	237.41027	467.28898	-93.69138	264.12376	351.37016	-120.47932	163.65575	90.65626	-163.63239	118.10123	55.98936	-220.63227	270.96604	38.70311	-123.35588	312.32579	55.67433	-162.84395	471.56512	499.36010	-367.78356	489.37631	387.45827	-331.60448	323.31966	143.39539	-370.69396	268.17654	116.29826	-320.82025	420.75262	64.49383	-398.55358	466.85748	71.41083	-348.89812	244.93579	242.51236	-145.15539	206.91442	347.00261	-69.29700	172.02810	244.51230	-102.05237	447.06939	427.91834	-396.05680	401.83928	317.44233	-415.83381	358.51229	762.86014	-88.03817	354.71722	650.64134	-95.86195	303.41309	626.05701	-53.96032	256.96315	762.20159	-36.91755	252.86968	647.36102	-44.16029	396.88966	781.62194	-395.74293	474.00860	670.78024	-385.27737	304.73195	723.56869	-426.04362	384.99224	609.16188	-407.76608	377.93343	925.93966	-112.04937	195.57304	982.46261	-182.64699	377.25829	927.44376	-355.02388	193.26036	978.55097	-299.34293	274.40008	1416.14503	-134.24413	311.03545	1336.09158	1.88806	347.10695	1422.33408	-293.15450	390.82498	1340.39728	-124.85289	395.61071	1351.01725	-168.90475	310.64602	1198.67457	41.68097	221.51501	1019.67404	-42.50897	242.72077	1013.48667	30.53886	311.96107	906.05432	33.69348	371.99532	820.44460	20.23173	339.27894	803.27447	28.94510	348.41613	1291.52941	-392.68020	245.91068	1107.66768	-384.35463	265.66638	1128.81493	-450.92714	332.05225	1052.04137	-480.29373	396.87164	939.31280	-481.11167	372.39816	927.63065	-499.74268	281.98604	861.17358	-138.55924	288.11020	856.39683	-327.77696	300.40459	867.26874	-142.46395	297.22897	861.89692	-302.71034	
48	0.47000000	241.25428	466.99672	-93.26483	266.20502	350.37838	-120.19855	163.93503	90.95263	-163.71180	118.17507	56.23859	-220.81786	271.01768	38.66417	-123.33500	312.47437	55.52669	-162.82879	482.66370	500.38675	-367.88134	505.76936	389.88832	-331.18373	354.58976	135.76550	-369.42283	301.05523	105.77631	-319.20661	456.54781	62.84466	-396.75440	502.41579	72.93623	-347.05423	246.71314	242.02621	-144.91493	209.42274	346.75482	-69.02834	173.64162	244.61812	-101.95164	461.55598	427.45464	-396.18345	422.96411	314.39511	-415.31274	365.83790	761.58863	-87.01797	360.93461	649.19395	-95.04872	309.41360	625.20029	-53.25857	263.97023	761.69683	-35.99164	258.76993	646.85689	-43.36571	405.89297	782.51357	-395.15402	483.50922	671.95094	-384.81176	314.19825	724.01808	-425.78350	394.94871	610.00150	-407.77254	385.95515	925.10929	-110.76895	203.72194	981.69223	-181.36031	385.60921	927.61498	-353.77187	201.35290	977.98121	-298.03784	282.32668	1416.25550	-135.68734	319.81693	1337.41074	0.91371	353.80509	1421.48175	-294.97244	398.77059	1340.93548	-126.33831	403.25004	1351.19171	-170.49108	320.48072	1200.25447	41.45094	231.56541	1020.40191	-40.94322	253.92314	1014.49327	31.74689	322.69456	906.84870	34.43864	382.01856	820.78832	20.43277	349.34900	803.76426	29.75439	354.48748	1290.13465	-393.75332	252.59633	1105.91396	-383.57107	271.59577	1127.01984	-450.40980	337.23704	1049.86755	-480.40439	401.38121	936.66144	-481.60621	376.69318	925.14089	-500.15343	290.22597	860.30093	-137.62528	296.54289	856.23724	-326.85340	308.64019	866.77058	-141.25010	305.38601	861.67233	-301.52738	
